PathFileType	4	(X/Y/Z)	C:\Users\Basilio\Documents\Thesis Gigler\squatting_fais\c3dfiles\044\SJ_pre3\markers_experimental.trc
DataRate	CameraRate	NumFrames	NumMarkers	Units	OrigDataRate	OrigDataStartFrame	OrigNumFrames
200.000000	200.000000	4	63	mm	200.000000	1070	1427
Frame#	Time	FHD			LBHD			RBHD			C7			T10			CLAV			LSHO			LUUPA			LMUPA			LDUPA			LLEP			LMEP			LRAD			LUL			LRFIN			RSHO			RUPA1			RMUPA			RDUPA			RLEP			RMEP			RRAD			RUL			RUFIN			RASI			USACR			LSACR			RSACR			LTHI1			LTHI2			LTHI3			LTHI4			LLFC			LMFC			LTIB1			LTIB2			LTIB3			LTIB4			LLMAL			LMMAL			LHEE			LMT1			LMT2			LMT5			RTHI			RTHI2			RTHI3			RTHI4			RLFC			RMFC			RTIB1			RTIB2			RTIB3			RTIB4			RLMAL			RMMAL			RHEE			RMT1			RMT2			RMT5			LASI			*61			*62			
		X1	Y1	Z1	X2	Y2	Z2	X3	Y3	Z3	X4	Y4	Z4	X5	Y5	Z5	X6	Y6	Z6	X7	Y7	Z7	X8	Y8	Z8	X9	Y9	Z9	X10	Y10	Z10	X11	Y11	Z11	X12	Y12	Z12	X13	Y13	Z13	X14	Y14	Z14	X15	Y15	Z15	X16	Y16	Z16	X17	Y17	Z17	X18	Y18	Z18	X19	Y19	Z19	X20	Y20	Z20	X21	Y21	Z21	X22	Y22	Z22	X23	Y23	Z23	X24	Y24	Z24	X25	Y25	Z25	X26	Y26	Z26	X27	Y27	Z27	X28	Y28	Z28	X29	Y29	Z29	X30	Y30	Z30	X31	Y31	Z31	X32	Y32	Z32	X33	Y33	Z33	X34	Y34	Z34	X35	Y35	Z35	X36	Y36	Z36	X37	Y37	Z37	X38	Y38	Z38	X39	Y39	Z39	X40	Y40	Z40	X41	Y41	Z41	X42	Y42	Z42	X43	Y43	Z43	X44	Y44	Z44	X45	Y45	Z45	X46	Y46	Z46	X47	Y47	Z47	X48	Y48	Z48	X49	Y49	Z49	X50	Y50	Z50	X51	Y51	Z51	X52	Y52	Z52	X53	Y53	Z53	X54	Y54	Z54	X55	Y55	Z55	X56	Y56	Z56	X57	Y57	Z57	X58	Y58	Z58	X59	Y59	Z59	X60	Y60	Z60	X61	Y61	Z61	X62	Y62	Z62	X63	Y63	Z63	

1071	5.350000000000001	-261.0286865234376	1713.111572265625	-916.9157714843752	-382.0662841796876	1658.257446289063	-1002.460632324219	-430.0469360351564	1629.649291992188	-844.1914672851565	-446.4516601562501	1484.917724609375	-936.0733032226565	-478.3514404296876	1175.0791015625	-946.4234619140627	-302.6328125000001	1433.36865234375	-925.0728149414065	-323.0389709472657	1476.555297851563	-1104.002807617188	-367.1643371582032	1307.725952148438	-1265.874145507813	-343.5068969726563	1266.698120117188	-1248.626220703125	-375.1081848144532	1246.281494140625	-1297.43212890625	-377.8429260253907	1187.186645507813	-1310.239135742188	-456.4334411621095	1189.070434570313	-1280.342041015625	-394.5288391113282	952.6378173828127	-1154.465942382813	-349.3529357910157	931.3344726562502	-1202.69189453125	-339.2279357910157	955.076599121094	-1114.826416015625	-360.2808837890626	1448.865844726563	-735.8018188476564	-413.3003540039064	1274.788940429688	-598.1504516601564	-384.0721435546876	1234.22607421875	-610.3592529296876	-418.6410522460939	1210.76220703125	-568.4826049804689	-415.1196899414064	1148.176391601563	-557.4004516601564	-494.1730041503907	1141.3583984375	-594.4692993164064	-404.0200195312501	921.1814575195315	-722.1802368164064	-359.6324462890626	902.7056884765627	-668.7460327148439	-342.2207336425782	937.6797485351565	-761.4818725585939	-308.3406372070313	949.6799926757815	-835.9780273437502	-469.3466186523439	1035.193603515625	-938.1124267578127	-479.549041748047	1003.449584960938	-965.0181274414065	-476.1675720214845	1004.949157714844	-908.135925292969	-374.6336975097657	741.9323120117189	-1149.721069335938	-324.7873535156251	674.3903198242189	-1162.021362304688	-279.2337036132813	686.0519409179689	-1155.150146484375	-338.2041015625001	615.8149414062501	-1154.499267578125	-294.6395568847657	467.8760375976564	-1159.510131835938	-281.0909423828126	451.755096435547	-1040.203735351563	-334.9063110351563	294.4530944824219	-1089.994873046875	-377.9790649414063	263.6066284179688	-1161.145263671875	-350.9894714355469	249.5819854736329	-1124.617919921875	-399.588836669922	186.4263610839844	-1095.740600585938	-493.9102478027345	97.10312652587893	-1147.763305664063	-473.628875732422	100.7352066040039	-1060.43408203125	-560.1190795898439	51.442440032959	-1099.830200195313	-342.5233459472657	60.08731842041017	-1086.98193359375	-346.2033386230469	62.20517730712892	-1133.650634765625	-383.7728271484376	40.08697128295899	-1179.944580078125	-368.0826721191407	688.3565673828126	-739.6974487304689	-315.9474487304688	646.3461303710939	-728.8952026367189	-284.4191284179688	655.3308105468751	-733.5308227539064	-320.4909362792969	562.6350097656251	-740.1220703125001	-307.0014038085938	458.0542297363282	-736.0137329101564	-307.5424194335938	446.5381469726564	-855.9091796875002	-310.2819519042969	322.4204711914063	-758.6894531250001	-405.2488098144532	290.7688598632813	-711.4684448242189	-370.8445434570313	266.0167236328126	-728.2414550781251	-385.194305419922	215.3911132812501	-753.8135986328126	-510.6312561035157	101.0832672119141	-729.4957275390626	-485.8860778808595	100.5970458984375	-815.4566650390627	-571.5817260742189	54.12060165405275	-777.5994262695315	-358.2951660156251	59.34849929809572	-778.7703857421877	-354.5277404785157	59.64143371582033	-741.1491088867189	-394.9862365722657	41.60708618164063	-690.6398925781251	-309.8317565917969	970.2265625000002	-1048.44775390625	nan	nan	nan	nan	nan	nan	
1072	5.355	-261.4903869628907	1715.754028320313	-916.623962402344	-382.7796325683594	1661.119262695313	-1002.439575195313	-430.3381958007814	1632.4111328125	-844.2722778320315	-447.0538024902345	1488.547485351563	-936.289245605469	-478.5376586914064	1177.975341796875	-946.4087524414065	-302.9986267089844	1436.398315429688	-925.058776855469	-323.5551452636719	1479.781982421875	-1103.927124023438	-366.8803100585938	1310.715209960938	-1265.650390625	-342.8168334960938	1269.80712890625	-1248.576538085938	-374.3729858398438	1249.145751953125	-1297.348999023438	-376.7650451660157	1190.083740234375	-1310.104125976563	-455.3645935058595	1191.4169921875	-1280.222045898438	-393.1161499023439	955.3674316406252	-1154.352172851563	-347.5708618164063	934.6910400390627	-1202.292358398438	-337.9162597656251	957.8992919921877	-1113.817504882813	-360.5361938476563	1452.026245117188	-735.6843872070314	-413.316131591797	1277.85009765625	-598.2338256835939	-383.5914611816407	1237.441162109375	-610.2348022460939	-418.1066284179689	1213.678833007813	-568.6571655273439	-414.2253417968751	1151.226196289063	-557.6633300781251	-493.189666748047	1143.976928710938	-594.5102539062501	-403.0476379394532	924.0928955078127	-722.3692626953126	-358.3155212402344	905.6312255859377	-668.9912109375001	-341.4052124023438	940.8437500000002	-761.9824829101564	-308.2049560546876	952.5583496093752	-836.1276855468752	-469.2949829101564	1037.859008789063	-937.9815673828127	-479.4202575683595	1006.391174316406	-964.9913330078127	-475.9056396484376	1007.820434570313	-908.0808105468752	-375.8204956054688	744.7807006835939	-1149.668212890625	-326.3924255371094	676.9542846679689	-1161.93896484375	-280.7177734375001	688.2869873046876	-1154.9912109375	-340.0073242187501	618.4893798828126	-1154.41748046875	-297.7483825683594	469.9509582519532	-1159.244262695313	-284.8543395996094	454.5082092285157	-1040.183227539063	-336.2545776367188	295.5367431640626	-1090.009765625	-379.7801818847657	264.3554382324219	-1161.188110351563	-353.0056152343751	250.8194580078126	-1124.542724609375	-400.649139404297	187.3233337402344	-1095.72265625	-494.1566162109376	97.28356933593753	-1147.640258789063	-473.719451904297	100.8974304199219	-1060.439453125	-560.1701660156251	51.51146316528322	-1099.664794921875	-342.4945373535157	60.06908798217775	-1086.921264648438	-346.1912231445313	62.34493637084962	-1133.588256835938	-383.8500976562501	40.19596099853516	-1179.922729492188	-369.6711425781251	690.6087036132814	-739.7000122070314	-317.9488220214844	648.5145874023439	-728.9440307617189	-286.2952270507813	657.4900512695314	-733.2166137695314	-322.8438110351563	564.5885009765626	-740.0535888671876	-310.1710815429688	460.1179504394532	-736.2904663085939	-310.4255981445313	448.1273193359376	-855.8101806640627	-312.5519714355469	324.1445007324219	-758.1099243164064	-407.1002197265626	291.7108764648438	-711.2210083007814	-372.1249694824219	266.9238281250001	-727.9727172851564	-386.5716857910157	216.5616149902344	-753.4919433593751	-510.9730834960939	101.3313446044922	-729.3940429687501	-485.9611816406251	100.7876586914063	-815.416442871094	-571.6080322265626	54.24679183959962	-777.6716308593752	-358.2719726562501	59.35633850097658	-778.7220458984377	-354.5098876953126	59.61000061035158	-741.0538940429689	-394.9503173828126	41.59365844726563	-690.6433715820314	-309.4987487792969	973.2789306640627	-1048.303588867188	nan	nan	nan	nan	nan	nan	
1073	5.36	-261.7209472656251	1718.368530273438	-916.674499511719	-383.3680114746094	1663.81884765625	-1002.340209960938	-430.8819885253907	1634.80224609375	-844.0222778320315	-447.1362609863282	1490.309936523438	-935.8977050781252	-478.5728149414064	1180.819702148438	-946.2793579101565	-303.0780944824219	1439.191528320313	-925.0864257812502	-324.0420532226563	1482.872436523438	-1103.833740234375	-366.6547851562501	1313.758422851563	-1265.494506835938	-341.8878479003907	1273.0966796875	-1248.811767578125	-373.1328735351563	1251.712280273438	-1297.093872070313	-375.9080810546876	1193.043701171875	-1309.880126953125	-455.0766601562501	1194.263427734375	-1280.006591796875	-392.0842895507814	957.9990844726565	-1154.174682617188	-346.1046142578126	937.333923339844	-1201.6279296875	-336.8757019042969	960.8359375000002	-1113.321044921875	-360.7933044433594	1455.029907226563	-735.6614379882814	-413.2566223144532	1280.572631835938	-598.3726806640626	-383.2155456542969	1240.666625976563	-610.1156616210939	-417.6264953613282	1216.509643554688	-568.7426147460939	-413.2925109863282	1153.924926757813	-557.4971313476564	-492.6150512695314	1146.616943359375	-594.3061523437501	-402.1938476562501	926.5974731445315	-722.4177856445314	-356.7516479492188	908.476745605469	-669.4714965820314	-340.5588989257813	943.6184082031252	-762.1328735351564	-308.1123657226563	955.462585449219	-836.195251464844	-469.1059570312501	1040.6943359375	-937.9285278320315	-479.2806091308595	1009.27880859375	-965.0297851562502	-475.5689086914064	1010.745239257813	-908.0471191406252	-377.0833740234376	747.5449218750001	-1149.550415039063	-327.9254455566407	679.3940429687501	-1161.74462890625	-282.1840820312501	690.3533935546876	-1154.758422851563	-341.7717285156251	620.7880859375001	-1154.575561523438	-300.5610961914063	471.6800537109376	-1159.18017578125	-289.0291137695313	457.031463623047	-1040.154052734375	-338.2739868164063	296.7374267578126	-1090.273681640625	-381.2240905761719	265.9214782714844	-1161.1279296875	-353.9079895019532	252.7232055664063	-1124.945922851563	-401.2876281738282	188.1680450439453	-1095.884521484375	-494.4604797363282	97.46791076660159	-1147.427001953125	-473.7265625000001	100.9430389404297	-1060.403076171875	-560.1236572265626	51.55211257934572	-1099.583251953125	-341.9522399902344	60.3995933532715	-1087.1943359375	-346.1501464843751	62.44788742065431	-1133.575927734375	-383.8440856933594	40.24298095703126	-1179.88916015625	-371.4694519042969	693.2876586914064	-739.7620239257814	-319.7216186523438	650.4165039062501	-728.8704833984376	-288.0427246093751	659.4475097656251	-733.3049926757814	-325.5645446777344	567.0722656250001	-740.5438232421876	-313.3607482910157	462.1170654296876	-736.1570434570314	-313.0101623535157	449.7448730468751	-855.711120605469	-314.4318542480469	326.2373352050782	-758.2142944335939	-408.8725891113282	293.0370483398438	-711.3559570312501	-373.9785766601563	268.6656799316407	-727.7573852539064	-387.6743774414064	217.978256225586	-753.2560424804689	-511.1966857910157	101.3827056884766	-729.2764892578126	-485.9705505371095	101.1141967773438	-815.173522949219	-571.3269653320314	53.99715805053712	-777.8145141601565	-358.1513061523438	59.31248092651369	-778.5925292968752	-354.5153198242188	59.61987686157228	-740.9600830078126	-395.0017089843751	41.61437606811524	-690.5433349609376	-309.5051879882813	976.0745849609377	-1047.88427734375	nan	nan	nan	nan	nan	nan	
1074	5.365	-261.9178466796876	1720.940551757813	-916.675964355469	-384.4238891601564	1665.924194335938	-1002.237182617188	-431.6444396972657	1637.611572265625	-843.777282714844	-447.5791015625001	1492.865478515625	-936.005798339844	-478.613983154297	1183.184692382813	-946.0928344726565	-303.3390502929688	1441.939208984375	-925.1965942382815	-324.5261230468751	1485.825927734375	-1103.804565429688	-366.3854675292969	1316.69091796875	-1265.3515625	-341.7342834472657	1275.8359375	-1248.397216796875	-372.9517211914063	1254.985107421875	-1297.10595703125	-374.8617248535157	1195.814819335938	-1309.729858398438	-454.1343078613282	1197.07080078125	-1280.18408203125	-390.9798889160157	960.7136840820315	-1154.14306640625	-344.7127685546876	940.1972656250002	-1201.498657226563	-336.3353576660157	963.732116699219	-1112.618286132813	-361.0944824218751	1457.838012695313	-735.5906982421876	-413.4461059570314	1283.40966796875	-598.5101928710939	-382.9147949218751	1243.654296875	-609.8914794921876	-417.230194091797	1219.615478515625	-568.7510986328126	-412.3658142089845	1156.78076171875	-557.5136718750001	-491.5390625000001	1149.028564453125	-594.3228759765626	-401.3161010742189	929.3817138671877	-722.4916381835939	-355.7700805664063	911.5137939453127	-669.6923828125001	-340.0301818847657	946.5496826171877	-762.4989013671876	-308.0392456054688	958.2381591796877	-836.4957275390627	-469.0041503906251	1043.314819335938	-937.9249267578127	-479.1582031250001	1012.069580078125	-965.041931152344	-475.4120178222657	1013.350036621094	-908.0166015625002	-378.1174011230469	749.9204101562501	-1149.514526367188	-329.2666320800782	681.6236572265626	-1161.456909179688	-283.4946594238282	692.4590454101564	-1154.7236328125	-343.5684509277344	623.2398071289064	-1154.516235351563	-303.2611999511719	473.581756591797	-1158.968872070313	-289.4851684570313	457.4188537597657	-1039.90966796875	-339.7074890136719	298.4969177246094	-1090.314575195313	-383.2929077148438	266.6454162597657	-1161.148315429688	-355.8074951171876	253.7289733886719	-1124.890380859375	-402.0571289062501	188.9555816650391	-1096.083251953125	-494.650848388672	97.65712738037112	-1147.385620117188	-473.7698974609376	101.0102233886719	-1060.3740234375	-560.4037475585939	52.14092254638673	-1099.763916015625	-342.4711914062501	60.13700103759767	-1086.853881835938	-346.0851440429688	62.58401489257814	-1133.557983398438	-383.8781738281251	40.22912597656251	-1179.898559570313	-372.9152832031251	695.7852172851564	-739.9933471679689	-321.5324401855469	652.6149291992189	-729.1299438476564	-289.8627929687501	661.4464111328126	-733.1613769531251	-327.8164672851563	568.9990844726564	-740.1580200195314	-316.4005126953126	464.0815429687501	-736.1309814453126	-315.6244812011719	451.3960571289064	-855.7962646484377	-316.4361267089844	328.0153503417969	-757.8720092773439	-410.7569274902345	293.7447509765626	-710.9931030273439	-375.7423400878907	269.6442871093751	-727.3307495117189	-388.8558959960939	219.0318145751954	-752.8458251953126	-511.341278076172	101.4631805419922	-729.1761474609376	-486.0838623046876	101.3131942749024	-815.0493164062502	-571.3085937500001	54.14291381835939	-777.8279418945315	-358.1455383300782	59.30565643310548	-778.534362792969	-354.5258178710938	59.61569976806642	-740.9130249023439	-395.0188293457032	41.63808822631837	-690.4752197265626	-307.0041503906251	979.814636230469	-1049.2021484375	nan	nan	nan	nan	nan	nan	
